<?xml version="1.0" standalone="no"?>
<!DOCTYPE svg PUBLIC "-//W3C//DTD SVG 20010904//EN"
 "http://www.w3.org/TR/2001/REC-SVG-20010904/DTD/svg10.dtd">
<svg version="1.0" xmlns="http://www.w3.org/2000/svg"
 width="504.000000pt" height="621.000000pt" viewBox="0 0 504.000000 621.000000"
 preserveAspectRatio="xMidYMid meet">

<g transform="translate(0.000000,621.000000) scale(0.100000,-0.100000)"
fill="#000000" stroke="none">
<path d="M0 4120 c0 -1149 3 -2090 6 -2090 16 0 150 88 201 132 117 103 279
311 459 591 38 59 116 181 174 270 l105 161 0 241 c1 211 3 252 23 342 75 345
246 643 495 864 485 429 1186 521 1757 228 434 -222 728 -608 832 -1093 30
-140 32 -453 4 -600 l-19 -99 39 -34 c178 -155 378 -279 563 -349 78 -30 274
-80 349 -90 l52 -7 0 135 c0 95 -6 163 -20 229 -23 111 -41 357 -34 449 3 36
17 108 30 160 l24 94 0 1278 0 1278 -285 0 c-157 0 -285 -2 -285 -5 0 -2 13
-19 28 -37 63 -72 196 -256 265 -366 90 -142 177 -304 151 -279 -10 9 -30 38
-44 64 -14 26 -32 48 -40 51 -11 3 -11 1 2 -9 17 -14 31 -63 21 -73 -4 -3 -13
0 -22 6 -9 7 1 -6 22 -28 20 -22 37 -46 37 -54 0 -9 5 -8 15 6 12 15 14 16 9
2 -4 -13 -1 -16 15 -13 14 3 24 -3 32 -18 8 -19 8 -20 -3 -7 -16 19 -40 20
-46 2 -2 -7 0 -11 5 -10 9 3 13 -5 13 -24 0 -6 -17 11 -37 39 -46 61 -129 159
-161 190 -14 13 -21 27 -16 34 4 7 3 9 -4 5 -6 -3 -32 17 -59 45 -102 110
-321 293 -494 412 l-97 67 -2031 0 -2031 0 0 -2090z m1368 1820 c1 -8 -49 -66
-111 -128 -112 -112 -113 -113 -132 -92 -18 20 -17 21 91 130 77 79 114 110
129 108 11 -2 21 -10 23 -18z m1762 -20 c0 -12 -28 -25 -36 -17 -9 9 6 27 22
27 8 0 14 -5 14 -10z m-1320 -18 c15 -12 20 -23 15 -32 -7 -11 -10 -10 -19 2
-15 21 -38 27 -58 16 -24 -12 -23 -45 1 -53 64 -20 91 -80 49 -109 -41 -29
-108 -14 -108 24 0 26 16 26 30 0 13 -24 43 -26 64 -5 21 22 11 40 -34 60 -22
10 -42 26 -45 36 -19 60 54 102 105 61z m940 -11 c11 -22 1 -60 -22 -78 -7 -6
-31 -13 -53 -15 -37 -3 -40 -5 -46 -41 -3 -20 -9 -40 -12 -44 -17 -16 -19 12
-8 79 22 127 16 118 77 118 42 0 55 -4 64 -19z m803 -1 c-4 -15 0 -20 16 -20
11 0 21 -4 21 -10 0 -5 -11 -10 -24 -10 -21 0 -24 -6 -30 -52 -6 -42 -4 -55 8
-64 21 -15 20 -24 -3 -24 -34 0 -43 23 -33 82 8 38 7 55 -1 61 -9 5 -7 10 6
18 9 5 17 17 17 24 0 8 6 15 14 15 9 0 12 -7 9 -20z m-1659 -81 c-5 -47 -4
-63 7 -70 39 -24 74 10 84 80 5 35 12 51 21 51 11 0 13 -8 9 -32 -3 -18 -9
-53 -13 -77 l-7 -45 -52 -3 c-71 -4 -87 13 -79 79 8 58 15 78 28 78 5 0 6 -25
2 -61z m196 51 c0 -6 8 -5 20 2 10 7 23 8 27 4 4 -5 2 -11 -6 -14 -30 -10 -49
-42 -56 -91 -5 -36 -11 -51 -22 -51 -11 0 -14 7 -10 23 3 12 9 45 13 72 3 28
8 53 11 58 6 11 23 9 23 -3z m109 -52 l13 -62 34 54 c18 30 35 59 37 64 2 5 8
7 14 5 15 -5 -117 -229 -135 -229 -10 0 -9 9 7 36 21 36 22 39 6 105 -18 83
-18 89 -2 89 8 0 18 -24 26 -62z m249 50 c9 -9 12 -9 12 0 0 7 7 12 16 12 12
0 15 -6 11 -22 -3 -13 -9 -47 -13 -76 -7 -55 -20 -74 -35 -51 -6 11 -11 11
-21 1 -13 -13 -46 -16 -73 -6 -43 17 -37 107 8 139 26 18 78 20 95 3z m362 2
c0 -7 7 -7 21 0 11 6 25 9 32 7 7 -2 -2 -11 -20 -20 -28 -15 -34 -25 -44 -77
-7 -39 -16 -60 -25 -60 -10 0 -13 8 -10 23 3 12 10 48 16 80 6 31 16 57 21 57
5 0 9 -5 9 -10z m219 -21 c29 -53 -19 -129 -82 -129 -70 0 -94 80 -40 134 36
37 100 34 122 -5z m81 19 c0 -35 -33 -194 -42 -205 -12 -15 -48 -17 -48 -3 0
6 7 10 15 10 16 0 19 9 35 110 6 36 13 73 16 83 6 20 24 23 24 5z m161 2 c13
-8 19 -21 19 -45 l0 -35 -65 0 c-47 0 -65 -4 -65 -13 0 -36 51 -49 81 -21 10
9 23 14 30 12 23 -8 -33 -48 -67 -48 -74 0 -94 80 -34 140 22 22 69 26 101 10z
m187 -2 c7 -7 12 -18 12 -25 0 -18 -27 -16 -34 2 -7 18 -46 20 -69 2 -10 -6
-20 -29 -23 -49 -6 -33 -4 -39 19 -49 21 -10 31 -9 51 5 39 25 55 18 23 -9
-43 -38 -101 -32 -118 13 -12 32 5 87 34 107 26 18 88 20 105 3z m-1948 -154
c0 -43 -27 -32 -100 41 -73 74 -74 74 -55 95 l19 21 68 -68 c42 -42 68 -76 68
-89z m-151 22 c46 -47 52 -57 41 -70 -18 -23 -30 -20 -67 16 l-33 32 -40 -39
c-33 -32 -41 -36 -55 -25 -8 7 -15 17 -15 23 0 12 100 117 110 117 3 0 30 -25
59 -54z m3541 -217 c0 -7 -9 -3 -20 9 -11 12 -20 27 -20 33 0 7 9 3 20 -9 11
-12 20 -27 20 -33z m54 -93 c-3 -8 0 -24 6 -36 11 -20 13 -20 24 -5 11 15 12
14 11 -8 0 -14 -4 -29 -8 -33 -4 -5 -5 0 -1 10 5 13 4 17 -4 12 -14 -9 -46 39
-38 59 3 8 8 15 10 15 3 0 3 -6 0 -14z m70 -132 c3 -8 2 -12 -4 -9 -6 3 -10
10 -10 16 0 14 7 11 14 -7z"/>
<path d="M2650 5871 c0 -10 -3 -26 -6 -35 -5 -13 1 -16 29 -16 67 0 81 63 14
68 -31 3 -37 0 -37 -17z"/>
<path d="M2361 5824 c-12 -15 -21 -35 -21 -45 0 -21 26 -49 46 -49 23 0 64 46
64 73 0 51 -55 64 -89 21z"/>
<path d="M2921 5824 c-12 -15 -21 -35 -21 -45 0 -23 26 -49 50 -49 23 0 60 46
60 74 0 50 -56 62 -89 20z"/>
<path d="M3186 5834 c-26 -25 -19 -34 27 -34 51 0 60 6 46 31 -12 23 -52 25
-73 3z"/>
<path d="M4821 5594 c0 -11 3 -14 6 -6 3 7 2 16 -1 19 -3 4 -6 -2 -5 -13z"/>
<path d="M2233 4936 c-220 -46 -392 -115 -548 -219 -368 -246 -617 -644 -667
-1066 -17 -147 -5 -403 25 -531 127 -543 543 -972 1077 -1113 165 -44 151 -44
144 5 -14 107 -48 272 -76 373 -50 182 -56 212 -68 348 -6 72 -15 165 -21 207
-5 41 -14 109 -19 150 -11 81 -3 129 26 161 25 28 24 195 -2 237 -63 100 -77
127 -94 189 -29 99 -27 95 -48 82 -25 -15 -50 -6 -62 23 -20 51 -69 226 -73
266 -4 30 -1 42 8 42 14 0 29 29 20 39 -3 3 -11 -1 -16 -9 -9 -12 -10 -13 -7
-1 2 8 12 19 21 25 12 8 22 5 42 -14 22 -20 25 -32 25 -86 0 -34 3 -69 6 -78
10 -27 24 -18 18 12 -3 15 1 93 9 174 12 125 18 151 38 180 20 27 25 50 30
125 6 94 23 138 57 150 19 7 111 73 133 96 28 27 82 49 173 69 141 30 154 31
199 15 23 -9 56 -18 74 -22 39 -8 111 -42 137 -64 10 -9 20 -15 22 -13 8 6 64
-23 64 -32 0 -5 9 -28 19 -50 12 -27 21 -73 24 -130 4 -65 10 -95 24 -115 11
-14 24 -39 31 -56 18 -48 45 -249 39 -297 -9 -77 -47 -261 -69 -332 -41 -129
-153 -256 -295 -332 -36 -20 -323 -39 -323 -22 0 4 -6 5 -12 3 -13 -5 -77 34
-137 82 -54 44 -24 1 55 -79 92 -92 163 -127 264 -130 46 -1 87 4 105 12 17 7
32 14 35 14 17 3 141 117 161 149 13 20 27 37 31 37 13 0 9 -122 -7 -188 -20
-82 -48 -136 -101 -194 -24 -26 -44 -52 -44 -57 0 -5 -7 -17 -16 -25 -13 -13
-13 -16 -1 -16 8 0 20 13 27 30 7 16 30 45 51 65 21 19 46 51 54 72 9 20 23
45 32 55 25 28 33 6 33 -97 0 -167 -25 -382 -71 -596 -29 -136 -88 -483 -84
-490 6 -9 173 27 280 61 244 79 517 262 673 452 167 205 272 422 328 678 15
69 19 127 19 305 -1 197 -3 230 -24 315 -76 305 -200 530 -411 740 -197 197
-415 323 -684 394 -123 33 -153 36 -361 41 -161 4 -192 2 -292 -19z m891 -755
c3 -5 -3 -11 -14 -14 -30 -8 -25 -30 5 -25 18 4 26 0 31 -14 8 -27 -3 -97 -27
-166 -11 -31 -24 -79 -30 -106 -8 -43 -29 -75 -51 -76 -4 0 -13 7 -21 15 -17
16 -8 78 17 118 9 15 12 55 11 127 -2 101 -1 106 24 127 28 24 46 29 55 14z"/>
<path d="M2721 4388 c-112 -13 -191 -70 -148 -107 12 -9 35 -6 108 13 67 17
100 21 117 15 16 -6 29 -6 37 1 9 8 15 8 20 0 3 -5 14 -10 24 -10 10 0 26 -9
36 -20 24 -27 35 -25 35 6 0 39 -17 62 -63 85 -48 25 -76 28 -166 17z"/>
<path d="M2076 4359 c-34 -21 -75 -74 -76 -96 0 -30 17 -29 45 1 31 34 111 43
190 21 91 -25 135 -28 142 -10 7 21 -23 53 -67 71 -46 20 -209 29 -234 13z"/>
<path d="M2571 4218 l-12 -33 23 22 c16 17 19 26 11 34 -7 7 -14 1 -22 -23z"/>
<path d="M2682 4230 c-31 -13 -78 -58 -69 -66 4 -4 20 5 35 19 35 33 38 33 46
2 4 -16 16 -27 33 -31 21 -6 31 -2 50 20 23 27 43 27 43 2 0 -8 15 -16 35 -18
41 -5 43 1 12 30 -47 45 -130 63 -185 42z"/>
<path d="M2178 4211 c-52 -11 -139 -80 -100 -81 4 0 17 -3 30 -6 17 -5 22 -2
22 13 0 36 21 44 44 16 28 -33 72 -26 82 12 7 28 8 29 35 14 11 -5 17 -14 14
-20 -4 -5 3 -9 14 -9 28 0 26 12 -6 41 -30 26 -73 32 -135 20z"/>
<path d="M1940 3883 c0 -5 5 -15 10 -23 8 -12 10 -11 10 8 0 12 -4 22 -10 22
-5 0 -10 -3 -10 -7z"/>
<path d="M2540 3882 c-14 -5 -30 -21 -30 -32 0 -3 18 -4 40 -2 22 2 40 8 40
13 0 13 -33 27 -50 21z"/>
<path d="M2375 3871 c-3 -6 -4 -15 -1 -20 8 -12 58 -1 53 13 -5 15 -43 20 -52
7z"/>
<path d="M1960 3825 c0 -11 5 -27 10 -35 8 -12 10 -12 10 5 0 11 -5 27 -10 35
-8 12 -10 12 -10 -5z"/>
<path d="M2543 3752 c-14 -24 -5 -39 31 -48 26 -6 28 -5 21 17 -8 26 -24 49
-34 49 -3 0 -11 -8 -18 -18z"/>
<path d="M2390 3743 c0 -12 5 -25 10 -28 13 -8 13 15 0 35 -8 12 -10 11 -10
-7z"/>
<path d="M2647 3704 c-3 -3 -3 -12 -1 -19 7 -18 -15 -30 -29 -16 -6 6 -31 11
-56 11 -30 0 -41 -3 -32 -9 9 -6 3 -10 -20 -13 -24 -4 -38 0 -47 11 -7 9 -11
10 -7 4 4 -8 0 -13 -9 -13 -9 0 -16 5 -16 10 0 13 -33 13 -45 1 -6 -5 -27 -13
-47 -16 -31 -6 -38 -4 -38 9 0 10 -9 16 -25 16 -19 0 -28 -8 -39 -32 -17 -42
-8 -52 46 -44 79 13 333 22 345 13 7 -5 19 -7 28 -4 8 4 17 2 20 -3 3 -5 15
-6 27 -1 31 11 33 66 2 86 -24 16 -46 19 -57 9z"/>
<path d="M2437 3541 c-36 -8 -55 -17 -46 -25 2 -2 41 -6 86 -9 59 -4 87 -1
100 8 10 7 16 16 13 18 -10 10 -116 15 -153 8z"/>
<path d="M834 2968 c-66 -101 -158 -248 -204 -328 -46 -80 -93 -161 -105 -180
-12 -19 -39 -64 -60 -100 -63 -107 -200 -310 -260 -385 -31 -38 -89 -104 -130
-146 l-75 -75 0 -57 c0 -31 3 -57 8 -57 9 0 126 137 188 220 74 101 221 328
329 510 173 291 316 522 382 618 35 51 64 100 65 110 2 30 -2 52 -10 52 -5 0
-62 -82 -128 -182z"/>
<path d="M933 2918 c-33 -51 -66 -104 -73 -118 -7 -14 -16 -27 -19 -30 -4 -3
-20 -27 -36 -55 -16 -27 -36 -62 -45 -76 -8 -14 -28 -48 -44 -75 -16 -27 -39
-65 -52 -84 -12 -19 -62 -102 -110 -185 -190 -327 -339 -550 -476 -712 l-78
-92 0 -745 0 -746 2520 0 2520 0 0 976 c0 924 -1 975 -18 970 -9 -3 -136 -31
-282 -62 -248 -53 -268 -56 -315 -45 -50 13 -133 41 -192 67 -17 8 -35 14 -41
14 -5 0 -17 10 -26 23 -9 12 -14 16 -10 8 4 -7 3 -12 -2 -9 -5 2 -26 12 -46
21 -21 10 -38 24 -38 33 0 10 -6 14 -14 11 -8 -3 -38 10 -67 30 -32 20 -44 32
-29 28 14 -4 30 -13 36 -21 6 -7 14 -11 17 -7 11 10 8 23 -5 23 -7 0 -26 7
-42 15 -15 8 -32 12 -37 9 -5 -3 -18 1 -30 9 -15 11 -17 16 -7 20 7 3 -2 8
-19 12 -36 8 -47 18 -57 53 -6 17 -3 22 9 22 9 0 15 5 13 12 -7 19 -24 20 -41
3 -20 -20 -27 -19 -27 3 0 13 -2 14 -9 3 -7 -10 -12 -11 -27 -1 -16 10 -16 11
-2 6 11 -3 17 0 15 7 -1 7 4 11 11 9 17 -3 15 13 -4 28 -8 8 -14 9 -13 4 4
-24 -2 -32 -23 -27 -29 7 -59 33 -52 44 3 5 -1 6 -9 3 -8 -3 -20 2 -27 11 -16
20 -34 19 -51 -2 -47 -56 -231 -184 -359 -248 -424 -214 -955 -221 -1377 -20
-176 84 -288 161 -426 294 -173 166 -309 375 -382 586 -16 44 -31 84 -35 88
-4 4 -34 -34 -67 -85z m2897 -702 c0 -2 -7 -7 -16 -10 -8 -3 -12 -2 -9 4 6 10
25 14 25 6z m-30 -36 c0 -5 -2 -10 -4 -10 -3 0 -8 5 -11 10 -3 6 -1 10 4 10 6
0 11 -4 11 -10z m-2798 -889 c36 -41 32 -55 -16 -59 -29 -3 -43 2 -58 18 -11
12 -27 19 -35 16 -8 -3 -19 -6 -24 -6 -5 0 -9 -6 -9 -14 0 -15 10 -20 70 -31
82 -17 115 -58 98 -122 -11 -40 -40 -61 -99 -69 -86 -12 -169 28 -169 81 0 22
4 25 40 25 29 0 42 -5 50 -20 11 -20 43 -26 74 -14 30 12 16 23 -54 44 -38 11
-76 28 -85 36 -40 40 -24 116 29 140 19 9 55 13 95 11 57 -3 66 -6 93 -36z
m178 -66 c0 -100 1 -105 25 -121 30 -20 63 -10 76 23 5 13 9 65 9 114 l0 89
45 0 45 0 0 -116 0 -116 -33 -33 c-39 -39 -101 -53 -164 -36 -57 15 -82 39
-93 86 -11 46 -13 198 -3 208 3 4 26 7 50 7 l43 0 0 -105z m494 91 c60 -25 72
-104 22 -149 l-23 -20 33 -59 33 -58 -54 0 -54 0 -28 53 c-15 28 -35 52 -43
52 -11 0 -16 -14 -18 -52 l-3 -53 -45 0 -44 0 0 150 0 150 95 0 c59 0 108 -5
129 -14z m218 -37 l31 -51 23 38 c13 22 28 45 34 52 11 12 100 18 100 6 0 -4
-25 -46 -55 -94 -50 -79 -55 -92 -55 -144 l0 -56 -50 0 -50 0 0 60 c0 56 -4
66 -50 135 -72 106 -72 105 -11 105 51 0 51 0 83 -51z m475 -99 c29 -80 53
-146 53 -147 0 -2 -22 -3 -49 -3 -41 0 -51 4 -56 20 -5 17 -15 20 -60 20 -44
0 -53 -3 -58 -20 -4 -16 -14 -20 -51 -20 -25 0 -46 3 -46 8 0 4 23 71 51 150
l52 143 55 -3 56 -3 53 -145z m503 111 l0 -40 -47 -3 -48 -3 -3 -107 -3 -108
-44 0 -45 0 0 110 0 110 -50 0 -50 0 0 40 0 40 145 0 145 0 0 -39z m240 35 c0
-3 24 -70 54 -150 l54 -146 -53 0 c-44 0 -54 3 -58 20 -4 17 -14 20 -57 20
-43 0 -53 -3 -57 -20 -4 -17 -14 -20 -55 -20 -44 0 -49 2 -43 18 7 18 93 248
100 270 4 11 115 19 115 8z m397 -22 c15 -11 33 -35 40 -52 l13 -32 -45 0
c-32 0 -51 6 -65 20 -47 47 -110 10 -110 -64 0 -65 40 -97 94 -77 35 14 33 31
-4 31 -27 0 -30 3 -30 30 l0 30 80 0 80 0 0 -80 0 -80 -29 0 c-16 0 -31 4 -33
10 -2 6 -21 3 -48 -6 -82 -29 -159 -3 -191 63 -40 83 -13 177 62 216 46 25
148 19 186 -9z m343 7 c49 -26 73 -71 72 -136 -1 -95 -42 -140 -141 -152 -74
-9 -136 23 -163 83 -24 55 -20 123 10 164 42 58 152 79 222 41z m355 5 c61
-26 75 -97 28 -144 l-26 -26 30 -58 30 -58 -53 0 -54 0 -27 55 c-35 72 -57 71
-61 -3 l-3 -52 -45 0 -44 0 0 150 0 150 95 0 c60 0 108 -5 130 -14z m-2895
-756 c0 -5 -24 -10 -54 -10 -52 0 -54 -1 -60 -31 -11 -56 -9 -59 34 -59 22 0
40 -4 40 -10 0 -10 -38 -23 -56 -19 -24 4 -32 -4 -38 -38 -11 -61 -16 -73 -32
-73 -10 0 -13 7 -9 23 2 12 12 63 20 112 9 50 18 96 20 103 5 15 135 17 135 2z
m281 -11 c15 -15 19 -28 14 -47 -8 -31 -43 -72 -62 -72 -16 0 -16 -4 1 -38 25
-51 29 -72 11 -72 -10 0 -24 19 -37 50 -16 39 -26 50 -43 50 -20 0 -24 -7 -30
-50 -5 -33 -12 -50 -21 -50 -18 0 -18 5 6 135 11 60 20 110 20 112 0 2 27 3
60 3 47 0 64 -4 81 -21z m360 -8 c23 -23 29 -38 29 -71 0 -89 -61 -150 -150
-150 -101 0 -135 124 -57 209 29 30 52 40 105 40 35 1 49 -5 73 -28z m266 -66
c26 -52 50 -95 53 -95 3 0 12 35 19 78 16 102 20 112 38 112 8 0 13 -6 11 -12
-3 -7 -13 -64 -24 -125 -23 -145 -33 -146 -98 -15 -55 110 -55 109 -76 -21 -9
-56 -17 -77 -27 -77 -12 0 -14 8 -10 33 33 189 40 217 53 217 8 0 35 -43 61
-95z m423 85 c0 -5 -15 -10 -34 -10 -24 0 -36 -5 -40 -17 -5 -19 -36 -192 -36
-205 0 -5 -7 -8 -16 -8 -12 0 -14 7 -10 28 3 15 10 56 16 92 6 36 13 75 15 88
5 20 1 22 -30 22 -19 0 -35 5 -35 10 0 6 35 10 85 10 50 0 85 -4 85 -10z m560
0 c0 -5 -22 -10 -49 -10 -56 0 -56 0 -65 -52 l-7 -38 46 0 c25 0 45 -4 45 -10
0 -5 -20 -10 -45 -10 -47 0 -51 -5 -58 -70 -2 -23 2 -25 46 -28 71 -5 57 -22
-18 -22 -45 0 -65 4 -65 13 0 6 9 61 20 121 11 60 20 111 20 113 0 2 29 3 65
3 37 0 65 -4 65 -10z m229 -87 c28 -54 51 -96 52 -93 0 3 9 45 18 94 9 49 22
91 29 94 16 5 15 -20 -6 -143 -24 -138 -38 -139 -98 -8 -52 111 -55 111 -75
-14 -8 -56 -17 -83 -26 -83 -17 0 -17 6 7 135 11 60 20 110 20 112 0 2 7 3 15
3 9 0 35 -40 64 -97z m410 82 c55 -28 64 -102 21 -173 -26 -42 -74 -62 -150
-62 -54 0 -61 2 -56 18 3 9 12 60 21 112 9 52 18 101 20 108 6 17 109 16 144
-3z m-949 -105 c0 -6 -30 -10 -70 -10 -40 0 -70 4 -70 10 0 6 30 10 70 10 40
0 70 -4 70 -10z"/>
<path d="M1544 1246 c-12 -31 4 -47 43 -44 33 3 38 6 38 28 0 22 -5 25 -38 28
-26 2 -39 -1 -43 -12z"/>
<path d="M2241 1199 c-17 -49 -14 -59 18 -59 l30 0 -16 45 c-8 25 -16 45 -18
45 -2 0 -8 -14 -14 -31z"/>
<path d="M3033 1185 l-10 -45 28 0 c16 0 29 3 29 6 0 17 -24 84 -30 84 -4 0
-11 -20 -17 -45z"/>
<path d="M3720 1240 c-23 -23 -27 -95 -7 -122 55 -72 149 22 106 105 -23 43
-66 50 -99 17z"/>
<path d="M4074 1246 c-12 -31 4 -47 43 -44 33 3 38 6 38 28 0 22 -5 25 -38 28
-26 2 -39 -1 -43 -12z"/>
<path d="M1477 533 c-3 -10 -9 -33 -12 -51 l-7 -33 48 3 c43 3 50 6 58 31 14
39 -2 61 -47 65 -27 2 -36 -1 -40 -15z"/>
<path d="M1830 538 c-42 -23 -72 -77 -67 -122 7 -52 26 -69 78 -69 114 0 154
179 44 198 -16 3 -41 0 -55 -7z"/>
<path d="M3707 457 c-22 -122 -23 -117 22 -117 75 0 142 78 125 146 -9 36 -51
64 -94 64 l-37 0 -16 -93z"/>
<path d="M2388 2803 c-29 -4 -128 -105 -128 -130 0 -7 14 -19 30 -28 17 -9 30
-21 30 -27 0 -6 6 -19 14 -27 8 -9 26 -47 41 -85 25 -61 27 -76 20 -135 -4
-36 -9 -84 -10 -106 -2 -33 -78 -249 -100 -284 -9 -15 70 -22 216 -19 l137 3
-29 100 c-17 55 -39 145 -50 200 -12 55 -29 116 -39 135 l-18 34 41 56 c23 30
61 77 84 104 24 26 43 56 43 65 -1 24 -66 108 -97 124 -29 15 -138 26 -185 20z"/>
<path d="M3802 2562 l-62 -94 27 -21 c16 -12 46 -38 68 -57 22 -20 66 -55 97
-79 32 -24 55 -48 51 -54 -3 -5 -1 -7 4 -4 6 4 53 -18 104 -49 151 -91 276
-141 477 -192 88 -22 130 -26 237 -27 116 0 136 3 183 24 l52 23 0 82 0 81
-133 1 c-117 1 -147 5 -267 37 -266 70 -443 161 -680 351 -41 33 -79 62 -85
66 -5 4 -38 -36 -73 -88z"/>
<path d="M3790 2406 c0 -2 8 -10 18 -17 15 -13 16 -12 3 4 -13 16 -21 21 -21
13z"/>
<path d="M3756 2301 c-3 -5 2 -15 12 -22 15 -12 16 -12 5 2 -7 9 -10 19 -6 22
3 4 4 7 0 7 -3 0 -8 -4 -11 -9z"/>
<path d="M3696 2272 c-2 -4 4 -8 14 -8 10 0 16 4 14 8 -3 4 -9 8 -14 8 -5 0
-11 -4 -14 -8z"/>
<path d="M3880 2200 c0 -6 7 -10 15 -10 8 0 15 2 15 4 0 2 -7 6 -15 10 -8 3
-15 1 -15 -4z"/>
<path d="M3835 2180 c3 -5 13 -10 21 -10 8 0 12 5 9 10 -3 6 -13 10 -21 10 -8
0 -12 -4 -9 -10z"/>
<path d="M3883 2154 c-3 -9 0 -20 8 -25 17 -11 65 -12 55 -1 -8 7 -13 8 -42
11 -13 1 -14 4 -4 16 9 11 9 15 1 15 -6 0 -14 -7 -18 -16z"/>
<path d="M3965 2120 c4 -6 -9 -10 -31 -10 -21 0 -34 -3 -30 -7 11 -11 60 -10
69 2 4 6 11 4 17 -5 5 -8 10 -10 10 -4 0 12 -21 34 -33 34 -4 0 -5 -4 -2 -10z"/>
<path d="M4027 2036 c-4 -10 -1 -13 8 -9 8 3 12 9 9 14 -7 12 -11 11 -17 -5z"/>
<path d="M4098 1983 c7 -3 16 -2 19 1 4 3 -2 6 -13 5 -11 0 -14 -3 -6 -6z"/>
</g>
</svg>
